<mxfile host="app.diagrams.net" modified="2023-12-16T05:30:39.898Z" agent="Mozilla/5.0 (Macintosh; Intel Mac OS X 10_15_7) AppleWebKit/605.1.15 (KHTML, like Gecko) Version/17.2 Safari/605.1.15" etag="0W-dqdGqWoRnjkEyVNrZ" version="22.1.9" type="device">
  <diagram name="Page-1" id="3kAfYfhUKfuOCbCIM9nf">
    <mxGraphModel dx="1111" dy="730" grid="1" gridSize="10" guides="1" tooltips="1" connect="1" arrows="1" fold="1" page="1" pageScale="1" pageWidth="827" pageHeight="1169" math="0" shadow="0">
      <root>
        <mxCell id="0" />
        <mxCell id="1" parent="0" />
        <mxCell id="UsWbbcW8shfwd-VVXdWg-21" value="" style="edgeStyle=orthogonalEdgeStyle;rounded=0;orthogonalLoop=1;jettySize=auto;html=1;fontFamily=Times New Roman;" edge="1" parent="1" source="UsWbbcW8shfwd-VVXdWg-1" target="UsWbbcW8shfwd-VVXdWg-4">
          <mxGeometry relative="1" as="geometry" />
        </mxCell>
        <mxCell id="UsWbbcW8shfwd-VVXdWg-1" value="x&lt;sub&gt;1&lt;/sub&gt;&lt;br&gt;x&lt;sub&gt;2&lt;/sub&gt;&lt;br&gt;x&lt;sub&gt;3&lt;/sub&gt;&lt;br&gt;...&lt;br&gt;x&lt;sub&gt;n&lt;/sub&gt;" style="shape=cube;whiteSpace=wrap;html=1;boundedLbl=1;backgroundOutline=1;darkOpacity=0.05;darkOpacity2=0.1;fillColor=#dae8fc;strokeColor=#6c8ebf;fontFamily=Times New Roman;" vertex="1" parent="1">
          <mxGeometry x="200" y="60" width="50" height="300" as="geometry" />
        </mxCell>
        <mxCell id="UsWbbcW8shfwd-VVXdWg-2" value="INPUT LAYER" style="text;html=1;align=center;verticalAlign=middle;resizable=0;points=[];autosize=1;strokeColor=none;fillColor=none;fontFamily=Times New Roman;fontSize=15;" vertex="1" parent="1">
          <mxGeometry x="165" y="10" width="120" height="30" as="geometry" />
        </mxCell>
        <mxCell id="UsWbbcW8shfwd-VVXdWg-3" value="1D Convolutional Layer" style="text;html=1;align=center;verticalAlign=middle;resizable=0;points=[];autosize=1;strokeColor=none;fillColor=none;fontFamily=Times New Roman;fontSize=15;" vertex="1" parent="1">
          <mxGeometry x="350" y="40" width="170" height="30" as="geometry" />
        </mxCell>
        <mxCell id="UsWbbcW8shfwd-VVXdWg-4" value="[f&lt;sub&gt;1&lt;/sub&gt;, f&lt;sub&gt;2&lt;/sub&gt;, f&lt;sub&gt;3&lt;/sub&gt;]&lt;br&gt;*&lt;br&gt;[x&lt;sub&gt;1&lt;/sub&gt;, x&lt;sub&gt;2&lt;/sub&gt;, x&lt;sub&gt;3&lt;/sub&gt;, ..., x&lt;sub&gt;n&lt;/sub&gt;]" style="shape=cube;whiteSpace=wrap;html=1;boundedLbl=1;backgroundOutline=1;darkOpacity=0.05;darkOpacity2=0.1;align=center;fillColor=#f8cecc;strokeColor=#b85450;fontFamily=Times New Roman;" vertex="1" parent="1">
          <mxGeometry x="290" y="110" width="120" height="200" as="geometry" />
        </mxCell>
        <mxCell id="UsWbbcW8shfwd-VVXdWg-6" value="Filter Application" style="text;html=1;align=center;verticalAlign=middle;resizable=0;points=[];autosize=1;strokeColor=none;fillColor=none;fontFamily=Times New Roman;" vertex="1" parent="1">
          <mxGeometry x="295" y="80" width="110" height="30" as="geometry" />
        </mxCell>
        <mxCell id="UsWbbcW8shfwd-VVXdWg-7" value="Feature Map" style="text;html=1;align=center;verticalAlign=middle;resizable=0;points=[];autosize=1;strokeColor=none;fillColor=none;fontFamily=Times New Roman;" vertex="1" parent="1">
          <mxGeometry x="460" y="150" width="80" height="30" as="geometry" />
        </mxCell>
        <mxCell id="UsWbbcW8shfwd-VVXdWg-28" value="" style="edgeStyle=orthogonalEdgeStyle;rounded=0;orthogonalLoop=1;jettySize=auto;html=1;entryX=0;entryY=0;entryDx=0;entryDy=25;entryPerimeter=0;fontFamily=Times New Roman;" edge="1" parent="1" source="UsWbbcW8shfwd-VVXdWg-10" target="UsWbbcW8shfwd-VVXdWg-16">
          <mxGeometry relative="1" as="geometry" />
        </mxCell>
        <mxCell id="UsWbbcW8shfwd-VVXdWg-10" value="[c&lt;sub&gt;1&lt;/sub&gt;, c&lt;sub&gt;2&lt;/sub&gt;, c&lt;sub&gt;3&lt;/sub&gt;, ..., c&lt;sub&gt;m&lt;/sub&gt;]" style="verticalLabelPosition=bottom;verticalAlign=top;html=1;shape=mxgraph.basic.layered_rect;dx=10;outlineConnect=0;whiteSpace=wrap;fillColor=#f8cecc;strokeColor=#b85450;fontFamily=Times New Roman;" vertex="1" parent="1">
          <mxGeometry x="445" y="180" width="100" height="70" as="geometry" />
        </mxCell>
        <mxCell id="UsWbbcW8shfwd-VVXdWg-13" value="Activation Function (e.g. ReLu)&amp;nbsp;" style="text;html=1;align=center;verticalAlign=middle;resizable=0;points=[];autosize=1;strokeColor=none;fillColor=none;fontFamily=Times New Roman;fontSize=15;" vertex="1" parent="1">
          <mxGeometry x="665" y="110" width="220" height="30" as="geometry" />
        </mxCell>
        <mxCell id="UsWbbcW8shfwd-VVXdWg-30" value="" style="edgeStyle=orthogonalEdgeStyle;rounded=0;orthogonalLoop=1;jettySize=auto;html=1;entryX=0;entryY=0;entryDx=0;entryDy=30;entryPerimeter=0;fontFamily=Times New Roman;" edge="1" parent="1" source="UsWbbcW8shfwd-VVXdWg-16" target="UsWbbcW8shfwd-VVXdWg-19">
          <mxGeometry relative="1" as="geometry" />
        </mxCell>
        <mxCell id="UsWbbcW8shfwd-VVXdWg-16" value="max(0, [c&lt;sub&gt;1&lt;/sub&gt;, c&lt;sub&gt;2&lt;/sub&gt;, c&lt;sub&gt;3&lt;/sub&gt;, ..., c&lt;sub&gt;m&lt;/sub&gt;])" style="shape=cube;whiteSpace=wrap;html=1;boundedLbl=1;backgroundOutline=1;darkOpacity=0.05;darkOpacity2=0.1;fillColor=#dae8fc;strokeColor=#6c8ebf;fontFamily=Times New Roman;" vertex="1" parent="1">
          <mxGeometry x="590" y="190" width="170" height="70" as="geometry" />
        </mxCell>
        <mxCell id="UsWbbcW8shfwd-VVXdWg-19" value="[a&lt;sub&gt;1&lt;/sub&gt;, a&lt;sub&gt;2&lt;/sub&gt;, a&lt;sub&gt;3&lt;/sub&gt;, ..., a&lt;sub&gt;m&lt;/sub&gt;]" style="verticalLabelPosition=bottom;verticalAlign=top;html=1;shape=mxgraph.basic.layered_rect;dx=10;outlineConnect=0;whiteSpace=wrap;fillColor=#f8cecc;strokeColor=#b85450;fontFamily=Times New Roman;" vertex="1" parent="1">
          <mxGeometry x="800" y="195" width="120" height="70" as="geometry" />
        </mxCell>
        <mxCell id="UsWbbcW8shfwd-VVXdWg-20" value="&lt;div style=&quot;text-align: center;&quot;&gt;Activated Feature Map&lt;/div&gt;" style="text;whiteSpace=wrap;html=1;fontFamily=Times New Roman;" vertex="1" parent="1">
          <mxGeometry x="800" y="150" width="170" height="40" as="geometry" />
        </mxCell>
        <mxCell id="UsWbbcW8shfwd-VVXdWg-25" value="" style="endArrow=none;html=1;rounded=0;edgeStyle=orthogonalEdgeStyle;entryX=0;entryY=0;entryDx=0;entryDy=30;entryPerimeter=0;fontFamily=Times New Roman;" edge="1" parent="1" source="UsWbbcW8shfwd-VVXdWg-4" target="UsWbbcW8shfwd-VVXdWg-10">
          <mxGeometry width="50" height="50" relative="1" as="geometry">
            <mxPoint x="580" y="160" as="sourcePoint" />
            <mxPoint x="630" y="110" as="targetPoint" />
          </mxGeometry>
        </mxCell>
        <mxCell id="UsWbbcW8shfwd-VVXdWg-26" value="Applied to Feature Map" style="text;html=1;align=center;verticalAlign=middle;resizable=0;points=[];autosize=1;strokeColor=none;fillColor=none;fontFamily=Times New Roman;" vertex="1" parent="1">
          <mxGeometry x="605" y="150" width="140" height="30" as="geometry" />
        </mxCell>
      </root>
    </mxGraphModel>
  </diagram>
</mxfile>
